<svg width="36" height="36" viewBox="0 0 36 36" fill="none" xmlns="http://www.w3.org/2000/svg">
<mask id="path-1-inside-1_2293_3182" fill="white">
<path fill-rule="evenodd" clip-rule="evenodd" d="M7 0.199814C3.13401 0.199814 0 3.33382 0 7.19981V23.6344C0 27.5004 3.13401 30.6344 7 30.6344H13.4747L16.3363 34.9122C17.1283 36.0962 18.869 36.0962 19.661 34.9122L22.5225 30.6344H28.9971C32.8631 30.6344 35.9971 27.5004 35.9971 23.6344V7.19981C35.9971 3.33382 32.8631 0.199814 28.9971 0.199814H7Z"/>
</mask>
<path d="M13.4747 30.6344L15.9682 28.9664L15.0772 27.6344H13.4747V30.6344ZM16.3363 34.9122L18.8298 33.2442L18.8298 33.2442L16.3363 34.9122ZM19.661 34.9122L17.1674 33.2442L17.1674 33.2442L19.661 34.9122ZM22.5225 30.6344V27.6344H20.92L20.029 28.9664L22.5225 30.6344ZM3 7.19981C3 4.99067 4.79086 3.19981 7 3.19981V-2.80019C1.47715 -2.80019 -3 1.67696 -3 7.19981H3ZM3 23.6344V7.19981H-3V23.6344H3ZM7 27.6344C4.79086 27.6344 3 25.8436 3 23.6344H-3C-3 29.1573 1.47716 33.6344 7 33.6344V27.6344ZM13.4747 27.6344H7V33.6344H13.4747V27.6344ZM18.8298 33.2442L15.9682 28.9664L10.9812 32.3025L13.8427 36.5802L18.8298 33.2442ZM17.1674 33.2442C17.5634 32.6522 18.4338 32.6522 18.8298 33.2442L13.8427 36.5802C15.8227 39.5402 20.1745 39.5402 22.1545 36.5802L17.1674 33.2442ZM20.029 28.9664L17.1674 33.2442L22.1545 36.5802L25.0161 32.3025L20.029 28.9664ZM28.9971 27.6344H22.5225V33.6344H28.9971V27.6344ZM32.9971 23.6344C32.9971 25.8436 31.2063 27.6344 28.9971 27.6344V33.6344C34.52 33.6344 38.9971 29.1573 38.9971 23.6344H32.9971ZM32.9971 7.19981V23.6344H38.9971V7.19981H32.9971ZM28.9971 3.19981C31.2063 3.19981 32.9971 4.99068 32.9971 7.19981H38.9971C38.9971 1.67697 34.52 -2.80019 28.9971 -2.80019V3.19981ZM7 3.19981H28.9971V-2.80019H7V3.19981Z" fill="#2E2E2E" mask="url(#path-1-inside-1_2293_3182)"/>
<mask id="path-3-inside-2_2293_3182" fill="white">
<path fill-rule="evenodd" clip-rule="evenodd" d="M7 0.199814C3.13401 0.199814 0 3.33382 0 7.19981V23.6344C0 27.5004 3.13401 30.6344 7 30.6344H13.4747L16.3363 34.9122C17.1283 36.0962 18.869 36.0962 19.661 34.9122L22.5225 30.6344H28.9971C32.8631 30.6344 35.9971 27.5004 35.9971 23.6344V7.19981C35.9971 3.33382 32.8631 0.199814 28.9971 0.199814H7Z"/>
</mask>
<path d="M13.4747 30.6344L15.9682 28.9664L15.0772 27.6344H13.4747V30.6344ZM16.3363 34.9122L18.8298 33.2442L18.8298 33.2442L16.3363 34.9122ZM19.661 34.9122L17.1674 33.2442L17.1674 33.2442L19.661 34.9122ZM22.5225 30.6344V27.6344H20.92L20.029 28.9664L22.5225 30.6344ZM3 7.19981C3 4.99067 4.79086 3.19981 7 3.19981V-2.80019C1.47715 -2.80019 -3 1.67696 -3 7.19981H3ZM3 23.6344V7.19981H-3V23.6344H3ZM7 27.6344C4.79086 27.6344 3 25.8436 3 23.6344H-3C-3 29.1573 1.47716 33.6344 7 33.6344V27.6344ZM13.4747 27.6344H7V33.6344H13.4747V27.6344ZM18.8298 33.2442L15.9682 28.9664L10.9812 32.3025L13.8427 36.5802L18.8298 33.2442ZM17.1674 33.2442C17.5634 32.6522 18.4338 32.6522 18.8298 33.2442L13.8427 36.5802C15.8227 39.5402 20.1745 39.5402 22.1545 36.5802L17.1674 33.2442ZM20.029 28.9664L17.1674 33.2442L22.1545 36.5802L25.0161 32.3025L20.029 28.9664ZM28.9971 27.6344H22.5225V33.6344H28.9971V27.6344ZM32.9971 23.6344C32.9971 25.8436 31.2063 27.6344 28.9971 27.6344V33.6344C34.52 33.6344 38.9971 29.1573 38.9971 23.6344H32.9971ZM32.9971 7.19981V23.6344H38.9971V7.19981H32.9971ZM28.9971 3.19981C31.2063 3.19981 32.9971 4.99068 32.9971 7.19981H38.9971C38.9971 1.67697 34.52 -2.80019 28.9971 -2.80019V3.19981ZM7 3.19981H28.9971V-2.80019H7V3.19981Z" fill="#2E2E2E" mask="url(#path-3-inside-2_2293_3182)"/>
<path d="M3.42822 15.4169H32.5688" stroke="#2E2E2E" stroke-width="3"/>
<path d="M6.85681 22.1802H17.9988" stroke="#2E2E2E" stroke-width="3"/>
</svg>
